{
    "asset" : {
        "generator" : "Khronos glTF Blender I/O v1.8.19",
        "version" : "2.0"
    },
    "scene" : 0,
    "scenes" : [
        {
            "name" : "Scene",
            "nodes" : [
                0
            ]
        }
    ],
    "nodes" : [
        {
            "mesh" : 0,
            "name" : "\u529e\u516c\u690504"
        }
    ],
    "materials" : [
        {
            "doubleSided" : true,
            "name" : "vm_v1_003_leather",
            "pbrMetallicRoughness" : {
                "baseColorTexture" : {
                    "index" : 0
                },
                "metallicFactor" : 0
            }
        },
        {
            "doubleSided" : true,
            "name" : "vm_v1_003_chrome",
            "pbrMetallicRoughness" : {
                "baseColorFactor" : [
                    0.313726007938385,
                    0.313726007938385,
                    0.313726007938385,
                    1
                ],
                "metallicFactor" : 0,
                "roughnessFactor" : 0.7440944910049438
            }
        },
        {
            "doubleSided" : true,
            "name" : "vm_v1_003_plastic",
            "pbrMetallicRoughness" : {
                "baseColorFactor" : [
                    0.1411760002374649,
                    0.1411760002374649,
                    0.1411760002374649,
                    1
                ],
                "metallicFactor" : 0,
                "roughnessFactor" : 0.7362204790115356
            }
        }
    ],
    "meshes" : [
        {
            "name" : "Obj3d66-1066551-3-971",
            "primitives" : [
                {
                    "attributes" : {
                        "POSITION" : 0,
                        "NORMAL" : 1,
                        "TEXCOORD_0" : 2,
                        "COLOR_0" : 3
                    },
                    "indices" : 4,
                    "material" : 0
                },
                {
                    "attributes" : {
                        "POSITION" : 5,
                        "NORMAL" : 6,
                        "TEXCOORD_0" : 7,
                        "COLOR_0" : 8
                    },
                    "indices" : 9,
                    "material" : 1
                },
                {
                    "attributes" : {
                        "POSITION" : 10,
                        "NORMAL" : 11,
                        "TEXCOORD_0" : 12,
                        "COLOR_0" : 13
                    },
                    "indices" : 14,
                    "material" : 2
                }
            ]
        }
    ],
    "textures" : [
        {
            "sampler" : 0,
            "source" : 0
        }
    ],
    "images" : [
        {
            "bufferView" : 5,
            "mimeType" : "image/jpeg",
            "name" : "3d66Model-1066551-files-13"
        }
    ],
    "accessors" : [
        {
            "bufferView" : 0,
            "componentType" : 5126,
            "count" : 3638,
            "max" : [
                0.3764103055000305,
                1.0781220197677612,
                0.38653892278671265
            ],
            "min" : [
                -0.33925119042396545,
                0.4450730085372925,
                -0.34384655952453613
            ],
            "type" : "VEC3"
        },
        {
            "bufferView" : 1,
            "componentType" : 5126,
            "count" : 3638,
            "type" : "VEC3"
        },
        {
            "bufferView" : 2,
            "componentType" : 5126,
            "count" : 3638,
            "type" : "VEC2"
        },
        {
            "bufferView" : 3,
            "componentType" : 5123,
            "count" : 3638,
            "normalized" : true,
            "type" : "VEC4"
        },
        {
            "bufferView" : 4,
            "componentType" : 5123,
            "count" : 20148,
            "type" : "SCALAR"
        },
        {
            "bufferView" : 6,
            "componentType" : 5126,
            "count" : 9718,
            "max" : [
                0.35453689098358154,
                0.7662479877471924,
                0.3254029154777527
            ],
            "min" : [
                -0.33993569016456604,
                0.060843005776405334,
                -0.3462139964103699
            ],
            "type" : "VEC3"
        },
        {
            "bufferView" : 7,
            "componentType" : 5126,
            "count" : 9718,
            "type" : "VEC3"
        },
        {
            "bufferView" : 8,
            "componentType" : 5126,
            "count" : 9718,
            "type" : "VEC2"
        },
        {
            "bufferView" : 9,
            "componentType" : 5123,
            "count" : 9718,
            "normalized" : true,
            "type" : "VEC4"
        },
        {
            "bufferView" : 10,
            "componentType" : 5123,
            "count" : 56109,
            "type" : "SCALAR"
        },
        {
            "bufferView" : 11,
            "componentType" : 5126,
            "count" : 12577,
            "max" : [
                0.3686816692352295,
                0.6866580247879028,
                0.33769094944000244
            ],
            "min" : [
                -0.3764103055000305,
                6.489244697149843e-09,
                -0.38653892278671265
            ],
            "type" : "VEC3"
        },
        {
            "bufferView" : 12,
            "componentType" : 5126,
            "count" : 12577,
            "type" : "VEC3"
        },
        {
            "bufferView" : 13,
            "componentType" : 5126,
            "count" : 12577,
            "type" : "VEC2"
        },
        {
            "bufferView" : 14,
            "componentType" : 5123,
            "count" : 12577,
            "normalized" : true,
            "type" : "VEC4"
        },
        {
            "bufferView" : 15,
            "componentType" : 5123,
            "count" : 68022,
            "type" : "SCALAR"
        }
    ],
    "bufferViews" : [
        {
            "buffer" : 0,
            "byteLength" : 43656,
            "byteOffset" : 0
        },
        {
            "buffer" : 0,
            "byteLength" : 43656,
            "byteOffset" : 43656
        },
        {
            "buffer" : 0,
            "byteLength" : 29104,
            "byteOffset" : 87312
        },
        {
            "buffer" : 0,
            "byteLength" : 29104,
            "byteOffset" : 116416
        },
        {
            "buffer" : 0,
            "byteLength" : 40296,
            "byteOffset" : 145520
        },
        {
            "buffer" : 0,
            "byteLength" : 88212,
            "byteOffset" : 185816
        },
        {
            "buffer" : 0,
            "byteLength" : 116616,
            "byteOffset" : 274028
        },
        {
            "buffer" : 0,
            "byteLength" : 116616,
            "byteOffset" : 390644
        },
        {
            "buffer" : 0,
            "byteLength" : 77744,
            "byteOffset" : 507260
        },
        {
            "buffer" : 0,
            "byteLength" : 77744,
            "byteOffset" : 585004
        },
        {
            "buffer" : 0,
            "byteLength" : 112218,
            "byteOffset" : 662748
        },
        {
            "buffer" : 0,
            "byteLength" : 150924,
            "byteOffset" : 774968
        },
        {
            "buffer" : 0,
            "byteLength" : 150924,
            "byteOffset" : 925892
        },
        {
            "buffer" : 0,
            "byteLength" : 100616,
            "byteOffset" : 1076816
        },
        {
            "buffer" : 0,
            "byteLength" : 100616,
            "byteOffset" : 1177432
        },
        {
            "buffer" : 0,
            "byteLength" : 136044,
            "byteOffset" : 1278048
        }
    ],
    "samplers" : [
        {
            "magFilter" : 9729,
            "minFilter" : 9987
        }
    ],
    "buffers" : [
        {
            "byteLength" : 1414092,
            "uri" : "data:application/octet-stream;base64,"
        }
    ]
}
